<?xml version="1.0" encoding="utf-8"?>
<!-- Generator: Adobe Illustrator 16.0.0, SVG Export Plug-In . SVG Version: 6.00 Build 0)  -->
<!DOCTYPE svg PUBLIC "-//W3C//DTD SVG 1.1//EN" "http://www.w3.org/Graphics/SVG/1.1/DTD/svg11.dtd">
<svg xmlns:xlink="http://www.w3.org/1999/xlink" version="1.1" id="Layer_1" xmlns="http://www.w3.org/2000/svg" x="0px" y="0px"
	 width="182px" height="63px" viewBox="0 0 182 63" enable-background="new 0 0 182 63" xml:space="preserve">
<g>
	<defs>
		<rect id="SVGID_1_" x="16" y="14" width="144.572" height="39"/>
	</defs>
	<clipPath id="SVGID_2_">
		<use xlink:href="#SVGID_1_"  overflow="visible"/>
	</clipPath>
	<path clip-path="url(#SVGID_2_)" fill="#EF404D" d="M43.274,45.119H17.108C16,45.119,16,45.141,16,46.223v5.674
		c0,1.106,0,1.1,1.108,1.1h26.166c1.095,0,1.104,0.007,1.104-1.102V46.22C44.378,45.107,44.408,45.119,43.274,45.119"/>
	<path clip-path="url(#SVGID_2_)" fill="#4B4C4E" d="M43.274,29.562H17.108C16,29.562,16,29.583,16,30.661v5.675
		c0,1.106,0,1.101,1.108,1.101h26.166c1.095,0,1.104,0.006,1.104-1.103v-5.673C44.378,29.547,44.408,29.562,43.274,29.562"/>
	<path clip-path="url(#SVGID_2_)" fill="#4B4C4E" d="M43.274,14H17.108C16,14,16,14.022,16,15.1v5.676c0,1.106,0,1.1,1.108,1.1
		h26.166c1.095,0,1.104,0.006,1.104-1.1V15.1C44.378,13.988,44.408,14,43.274,14"/>
	<path clip-path="url(#SVGID_2_)" fill="#4B4C4E" d="M118.088,14h-7.183c-1.132,0-1.104,0-1.104,0.997v30.479
		c-1.824,0-3.255-0.004-5.135-0.004c-4.974,0-6.465-2.148-6.465-7.496V14.997C98.202,14,98.188,14,97.096,14h-7.238
		c-1.109,0-1.108,0-1.108,0.997v22.979c0,11.949,6.688,14.989,16.47,14.989h7.647c1.285,0,2.412-0.056,3.072-0.148
		c2.316-0.312,3.313-1.045,3.313-3.615V14.997C119.252,14,119.239,14,118.088,14"/>
	<path clip-path="url(#SVGID_2_)" fill="#4B4C4E" d="M71.362,33.497l11.264-18.499C83.255,14,82.661,14,82.071,14h-7.969
		c-1.09,0-1.09,0-1.712,0.998l-6.144,10.096l-6.149-10.096C59.454,14,59.454,14,58.387,14h-7.968c-0.613,0-1.209,0-0.552,0.998
		l11.26,18.499l-11.26,18.5c-0.454,0.857,0.026,1.007,0.552,1h7.968c1.067,0,1.067,0.016,1.71-1l6.149-10.096l6.144,10.096
		c0.682,1.016,0.653,1.016,1.712,1h7.969c0.619,0,1.184,0.016,0.552-1L71.362,33.497z"/>
	<path clip-path="url(#SVGID_2_)" fill="#4B4C4E" d="M146.359,32.165l-7.075-4.273c-2.844-1.697-3.699-2.15-3.699-3.582
		c0-1.338,1.438-2.661,3.235-2.661h10.609c1.39,0,1.385,0.005,1.385-1.309v-4.979c0-1.298,0.005-1.311-1.385-1.311l-9.314-0.047
		c-10.726,0-14.15,4.425-14.15,10.05c0,3.736,1.382,6.96,6.524,9.773l7.626,4.196c2.873,1.585,3.646,2.401,3.646,3.888
		c0,2.044-0.819,3.484-3.223,3.484h-11.352c-1.378,0-1.384,0.019-1.384,1.311v4.979c0,1.329,0.006,1.31,1.384,1.31H139.8
		c9.538,0,14.022-5.767,14.022-10.443C153.822,38.407,152.08,35.533,146.359,32.165"/>
	<path clip-path="url(#SVGID_2_)" fill="#4B4C4E" d="M160.572,50.203c0-1.45-1.241-2.617-2.77-2.617
		c-1.529,0-2.759,1.167-2.759,2.617c0,1.449,1.229,2.606,2.759,2.606C159.331,52.81,160.572,51.652,160.572,50.203 M160.153,50.203
		c0,1.226-1.058,2.209-2.351,2.209c-1.292,0-2.33-0.983-2.33-2.209c0-1.228,1.038-2.229,2.33-2.229
		C159.096,47.974,160.153,48.976,160.153,50.203 M159.096,51.691c0-0.028-0.011-0.067-0.021-0.088l-0.789-1.217
		c0.432-0.116,0.687-0.378,0.687-0.875v-0.039c0-0.739-0.491-0.982-1.343-0.982c-0.227,0-0.626,0.011-0.78,0.029
		c-0.123,0.01-0.184,0.088-0.184,0.214v2.938c0,0.067,0.051,0.146,0.133,0.146h0.256c0.082,0,0.143-0.078,0.143-0.146v-1.207h0.433
		l0.103,0.029l0.831,1.245c0.021,0.039,0.072,0.078,0.123,0.078h0.286C159.064,51.817,159.096,51.76,159.096,51.691 M158.461,49.512
		c0,0.39-0.226,0.536-0.801,0.536c-0.083,0-0.36-0.01-0.473-0.01v-1.092h0.144h0.329c0.564,0,0.801,0.138,0.801,0.526V49.512z"/>
</g>
</svg>
